<?xml version="1.0" encoding="UTF-8"?>
<svg width="301px" height="213px" viewBox="0 0 301 213" version="1.1" xmlns="http://www.w3.org/2000/svg" xmlns:xlink="http://www.w3.org/1999/xlink">
    <!-- Generator: Sketch 46.2 (44496) - http://www.bohemiancoding.com/sketch -->
    <title>Onion Weather</title>
    <desc>Created with Sketch.</desc>
    <defs></defs>
    <g id="Page-1" stroke="none" stroke-width="1" fill="none" fill-rule="evenodd">
        <g id="Onion-Weather">
            <g id="Group" transform="translate(29.000000, 9.000000)">
                <g id="weather-cloudy" transform="translate(36.000000, 38.000000)"></g>
                <path d="M197.444444,86.2 L174.888889,86.2 L174.888889,75 C174.888889,44.072054 149.642723,19 118.5,19 C90.3055556,19 67.1861111,39.384 62.7877778,65.928 C59.0661111,64.584 55.0061111,63.8 50.8333333,63.8 C32.1476993,63.8 17,78.8432324 17,97.4 C17,115.956768 32.1476993,131 50.8333333,131 L197.444444,131 C209.901534,131 220,120.971178 220,108.6 C220,96.2288216 209.901534,86.2 197.444444,86.2 Z" id="Center" stroke="#7E4798" stroke-width="10"></path>
                <path d="M216.888889,71.7380688 L189.777778,71.7380688 L189.777778,55.7081021 C189.777778,11.4425714 159.432633,0 122,0 C88.1111111,-2.8775593e-14 60.3222222,11.8748724 55.0355556,49.8658935 C50.5622222,47.9422974 45.6822222,46.8201998 40.6666667,46.8201998 C18.2070868,46.8201998 0,68.3507814 0,94.9100999 C0,121.469418 18.2070868,143 40.6666667,143 L216.888889,143 C231.861942,143 244,128.646279 244,110.940067 C244,93.2338543 231.861942,71.7380688 216.888889,71.7380688 Z" id="Outer" stroke="#7E4798" stroke-width="5"></path>
                <path d="M180.355686,97.6567207 L162.711372,97.6567207 L162.711372,74.0166427 C162.711372,49.7253052 143.991369,32.7900433 118.600587,33.0019667 C96.5479407,33.1860284 81.0285386,59.4170769 77.5878973,80.2651882 C74.6765855,79.2095877 66.7156703,77.8368668 63.4514722,77.8368668 C48.8344438,77.8368668 39,83.0819182 39,97.6567207 C39,112.231523 51.0506162,118 65.6676446,118 L180.355686,118 C190.100372,118 198,117.544895 198,107.82836 C198,98.1118254 190.100372,97.6567207 180.355686,97.6567207 Z" id="Inner" stroke="#7E4798" stroke-width="5"></path>
            </g>
            <text font-family="SourceSansPro-SemiBold, Source Sans Pro" font-size="35" font-weight="500" fill="#68B030">
                <tspan x="37" y="195">Onion Weather</tspan>
            </text>
        </g>
    </g>
</svg>