<?xml version="1.0" encoding="UTF-8"?>
<svg width="100px" height="100px" viewBox="0 0 100 100" version="1.1" xmlns="http://www.w3.org/2000/svg" xmlns:xlink="http://www.w3.org/1999/xlink">
    <!-- Generator: Sketch 46.2 (44496) - http://www.bohemiancoding.com/sketch -->
    <title>Rainy 100px</title>
    <desc>Created with Sketch.</desc>
    <defs></defs>
    <g id="Page-1" stroke="none" stroke-width="1" fill="none" fill-rule="evenodd">
        <g id="Rainy-100px">
            <g id="weather-rainy" transform="translate(10.000000, 13.000000)">
                <path d="M18.1818182,43.5789474 C20.1901264,43.5789474 21.8181818,45.2048606 21.8181818,47.2105263 C21.8181818,49.216192 20.1901264,50.8421053 18.1818182,50.8421053 C13.3597002,50.8421053 8.73508359,48.9290468 5.32533125,45.523781 C1.91557892,42.1185152 4.03717464e-16,37.4999836 0,32.6842105 C-8.07434927e-16,22.6558822 8.14027728,14.5263158 18.1818182,14.5263158 C21.8181818,5.99210526 30.1818182,0 40,0 C52.4727273,0 62.6909091,9.66 63.6363636,21.8984211 L65.4545455,21.7894737 C73.4877782,21.7894737 80,28.2931268 80,36.3157895 C80,44.3384522 73.4877782,50.8421053 65.4545455,50.8421053 L61.8181818,50.8421053 C59.8098736,50.8421053 58.1818182,49.216192 58.1818182,47.2105263 C58.1818182,45.2048606 59.8098736,43.5789474 61.8181818,43.5789474 L65.4545455,43.5789474 C69.4711618,43.5789474 72.7272727,40.3271208 72.7272727,36.3157895 C72.7272727,32.3044581 69.4711618,29.0526316 65.4545455,29.0526316 L58.1818182,29.0526316 L58.1818182,25.4210526 C58.1818182,15.3927243 50.0415409,7.26315789 40,7.26315789 C30.9090909,7.26315789 23.4545455,13.8726316 22.0363636,22.4794737 C20.8363636,22.0436842 19.5272727,21.7894737 18.1818182,21.7894737 C12.1568936,21.7894737 7.27272727,26.6672135 7.27272727,32.6842105 C7.27272727,38.7012075 12.1568936,43.5789474 18.1818182,43.5789474 L18.1818182,43.5789474 Z" id="Cloud" fill="#5B6C75" fill-rule="nonzero"></path>
                <path d="M50.2909091,49.6436842 C55.9636364,55.3089474 55.9636364,63.5526316 50.2909091,69.2905263 C47.4545455,72.1231579 43.6363636,72.6315789 40,72.6315789 C36.3636364,72.6315789 32.5454545,72.1231579 29.7090909,69.2905263 C24.0363636,63.5526316 24.0363636,55.3089474 29.7090909,49.6436842 L40,32.6842105 L50.2909091,49.6436842 Z M45.1272727,53.3478947 L40,44.4868421 L34.8727273,53.3478947 C32,56.2894737 32,60.6473684 34.8727273,63.5526316 C36.3636364,65.1142105 38.1818182,65.3684211 40,65.3684211 C41.8181818,65.3684211 43.6363636,65.1142105 45.1272727,63.5526316 C48,60.6473684 48,56.2894737 45.1272727,53.3478947 Z" id="Raindrop" fill="#0470A6"></path>
            </g>
        </g>
    </g>
</svg>