<?xml version="1.0" encoding="UTF-8"?>
<svg width="80px" height="80px" viewBox="0 0 80 80" version="1.1" xmlns="http://www.w3.org/2000/svg" xmlns:xlink="http://www.w3.org/1999/xlink">
    <!-- Generator: Sketch 46.2 (44496) - http://www.bohemiancoding.com/sketch -->
    <title>Cloudy</title>
    <desc>Created with Sketch.</desc>
    <defs></defs>
    <g id="Page-1" stroke="none" stroke-width="1" fill="none" fill-rule="evenodd">
        <g id="Cloudy" fill-rule="nonzero" fill="#5B6C75">
            <g id="weather-cloudy" transform="translate(10.000000, 21.000000)">
                <path d="M13.6363636,37.8947368 C10.0197751,37.8947368 6.55131269,36.4688548 3.99399844,33.9307685 C1.43668419,31.3926821 3.02788098e-16,27.9502984 0,24.3609023 C-3.63345717e-15,20.7715062 1.43668419,17.3291224 3.99399844,14.791036 C6.55131269,12.2529497 10.0197751,10.8270677 13.6363636,10.8270677 C16.3636364,4.46616541 22.6363636,0 30,0 C39.3545455,0 47.0181818,7.2 47.7272727,16.3218045 L49.0909091,16.2406015 C55.1158336,16.2406015 60,21.0880448 60,27.0676692 C60,33.0472935 55.1158336,37.8947368 49.0909091,37.8947368 L13.6363636,37.8947368 L13.6363636,37.8947368 Z M49.0909091,21.6541353 L43.6363636,21.6541353 L43.6363636,18.9473684 C43.6363636,11.472838 37.5311557,5.41353383 30,5.41353383 C23.1818182,5.41353383 17.5909091,10.3398496 16.5272727,16.7548872 C15.6272727,16.4300752 14.6454545,16.2406015 13.6363636,16.2406015 C9.11767023,16.2406015 5.45454545,19.876184 5.45454545,24.3609023 C5.45454545,28.8456205 9.11767023,32.481203 13.6363636,32.481203 L49.0909091,32.481203 C52.1033714,32.481203 54.5454545,30.0574814 54.5454545,27.0676692 C54.5454545,24.077857 52.1033714,21.6541353 49.0909091,21.6541353 Z" id="Shape"></path>
            </g>
        </g>
    </g>
</svg>