<?xml version="1.0" encoding="UTF-8"?>
<svg width="80px" height="80px" viewBox="0 0 80 80" version="1.1" xmlns="http://www.w3.org/2000/svg" xmlns:xlink="http://www.w3.org/1999/xlink">
    <!-- Generator: Sketch 46.2 (44496) - http://www.bohemiancoding.com/sketch -->
    <title>Sunny</title>
    <desc>Created with Sketch.</desc>
    <defs></defs>
    <g id="Page-1" stroke="none" stroke-width="1" fill="none" fill-rule="evenodd">
        <g id="Sunny" fill="#F9DA32">
            <g id="weather-sunny" transform="translate(10.000000, 6.000000)">
                <g id="rays" fill-opacity="0.895380435">
                    <path d="M29.8428117,0 L38.0788763,11.5425 C35.5287977,10.63125 32.7374955,10.125 29.8428117,10.125 C26.9481278,10.125 24.1568256,10.63125 21.606747,11.5425 L29.8428117,0 L29.8428117,0 Z" id="Path"></path>
                    <path d="M0,16.875 L14.335577,15.69375 C12.2679457,17.415 10.4070775,19.5075 8.9597356,21.9375 C7.44347265,24.435 6.58195961,27 6.09951231,29.66625 L0,16.875 L0,16.875 Z" id="Path"></path>
                    <path d="M0.0689210431,50.625 L6.13397283,37.90125 C6.61642014,40.5 7.54685422,43.1325 8.99419612,45.5625 C10.441538,48.06 12.3024062,50.1525 14.335577,51.87375 L0.0689210431,50.625 L0.0689210431,50.625 Z" id="Path"></path>
                    <path d="M59.6511628,16.875 L53.5516505,29.66625 C53.0692032,27 52.1387691,24.40125 50.6914272,21.9375 C49.2440853,19.5075 47.4176776,17.38125 45.3500464,15.66 L59.6511628,16.875 L59.6511628,16.875 Z" id="Path"></path>
                    <path d="M59.6167023,50.625 L45.3500464,51.84 C47.3832171,50.11875 49.2096248,47.9925 50.6569667,45.5625 C52.1043086,43.09875 53.0347427,40.5 53.51719,37.83375 L59.6167023,50.625 L59.6167023,50.625 Z" id="Path"></path>
                    <path d="M29.8428117,67.5 L21.537826,55.89 C24.0879046,56.80125 26.8792068,57.375 29.8428117,57.375 C32.6685744,57.375 35.4598767,56.80125 38.0099553,55.89 L29.8428117,67.5 Z" id="Path"></path>
                    <path d="M29.8428117,67.5 L21.537826,55.89 C24.0879046,56.80125 26.8792068,57.375 29.8428117,57.375 C32.6685744,57.375 35.4598767,56.80125 38.0099553,55.89 L29.8428117,67.5 Z" id="Path"></path>
                </g>
                <g id="circle" transform="translate(12.000000, 16.500000)">
                    <path d="M17.8428117,0.375 C27.3588219,0.375 35.0730724,7.93019485 35.0730724,17.25 C35.0730724,26.5698052 27.3588219,34.125 17.8428117,34.125 C8.3268014,34.125 0.612550885,26.5698052 0.612550885,17.25 C0.612550885,7.93019485 8.3268014,0.375 17.8428117,0.375 L17.8428117,0.375 Z M17.8428117,7.125 C12.1332055,7.125 7.50465519,11.6581169 7.50465519,17.25 C7.50465519,22.8418831 12.1332055,27.375 17.8428117,27.375 C23.5524178,27.375 28.1809681,22.8418831 28.1809681,17.25 C28.1809681,11.6581169 23.5524178,7.125 17.8428117,7.125 Z" id="Combined-Shape"></path>
                </g>
            </g>
        </g>
    </g>
</svg>