<?xml version="1.0" encoding="UTF-8"?>
<svg width="100px" height="100px" viewBox="0 0 100 100" version="1.1" xmlns="http://www.w3.org/2000/svg" xmlns:xlink="http://www.w3.org/1999/xlink">
    <!-- Generator: Sketch 46.2 (44496) - http://www.bohemiancoding.com/sketch -->
    <title>Cloudy 100px</title>
    <desc>Created with Sketch.</desc>
    <defs></defs>
    <g id="Page-1" stroke="none" stroke-width="1" fill="none" fill-rule="evenodd">
        <g id="Cloudy-100px" fill-rule="nonzero" fill="#5B6C75">
            <g id="weather-cloudy" transform="translate(10.000000, 25.000000)">
                <path d="M18.1818182,50.5263158 C13.3597002,50.5263158 8.73508359,48.6251397 5.32533125,45.2410246 C1.91557892,41.8569095 4.03717464e-16,37.2670645 0,32.481203 C-4.84460956e-15,27.6953415 1.91557892,23.1054965 5.32533125,19.7213814 C8.73508359,16.3372663 13.3597002,14.4360902 18.1818182,14.4360902 C21.8181818,5.95488722 30.1818182,0 40,0 C52.4727273,0 62.6909091,9.6 63.6363636,21.762406 L65.4545455,21.6541353 C73.4877782,21.6541353 80,28.1173931 80,36.0902256 C80,44.063058 73.4877782,50.5263158 65.4545455,50.5263158 L18.1818182,50.5263158 L18.1818182,50.5263158 Z M65.4545455,28.8721805 L58.1818182,28.8721805 L58.1818182,25.2631579 C58.1818182,15.2971173 50.0415409,7.21804511 40,7.21804511 C30.9090909,7.21804511 23.4545455,13.7864662 22.0363636,22.3398496 C20.8363636,21.9067669 19.5272727,21.6541353 18.1818182,21.6541353 C12.1568936,21.6541353 7.27272727,26.5015786 7.27272727,32.481203 C7.27272727,38.4608274 12.1568936,43.3082707 18.1818182,43.3082707 L65.4545455,43.3082707 C69.4711618,43.3082707 72.7272727,40.0766418 72.7272727,36.0902256 C72.7272727,32.1038093 69.4711618,28.8721805 65.4545455,28.8721805 Z" id="Shape"></path>
            </g>
        </g>
    </g>
</svg>