<?xml version="1.0" encoding="UTF-8"?>
<svg width="100px" height="100px" viewBox="0 0 100 100" version="1.1" xmlns="http://www.w3.org/2000/svg" xmlns:xlink="http://www.w3.org/1999/xlink">
    <!-- Generator: Sketch 46.2 (44496) - http://www.bohemiancoding.com/sketch -->
    <title>Sunny 100px</title>
    <desc>Created with Sketch.</desc>
    <defs></defs>
    <g id="Page-1" stroke="none" stroke-width="1" fill="none" fill-rule="evenodd">
        <g id="Sunny-100px" fill="#F9DA32">
            <g id="weather-sunny" transform="translate(10.000000, 5.000000)">
                <g id="rays" fill-opacity="0.895380435">
                    <path d="M39.7904155,0 L50.7718351,15.39 C47.3717303,14.175 43.649994,13.5 39.7904155,13.5 C35.9308371,13.5 32.2091008,14.175 28.808996,15.39 L39.7904155,0 L39.7904155,0 Z" id="Path"></path>
                    <path d="M0,22.5 L19.1141026,20.925 C16.3572609,23.22 13.8761033,26.01 11.9463141,29.25 C9.9246302,32.58 8.77594615,36 8.13268308,39.555 L0,22.5 L0,22.5 Z" id="Path"></path>
                    <path d="M0.0918947241,67.5 L8.17863045,50.535 C8.82189351,54 10.0624723,57.51 11.9922615,60.75 C13.9220507,64.08 16.4032083,66.87 19.1141026,69.165 L0.0918947241,67.5 L0.0918947241,67.5 Z" id="Path"></path>
                    <path d="M79.5348837,22.5 L71.4022006,39.555 C70.7589376,36 69.5183588,32.535 67.5885696,29.25 C65.6587804,26.01 63.2235702,23.175 60.4667285,20.88 L79.5348837,22.5 L79.5348837,22.5 Z" id="Path"></path>
                    <path d="M79.4889364,67.5 L60.4667285,69.12 C63.1776228,66.825 65.612833,63.99 67.5426222,60.75 C69.4724114,57.465 70.7129902,54 71.3562533,50.445 L79.4889364,67.5 L79.4889364,67.5 Z" id="Path"></path>
                    <path d="M39.7904155,90 L28.7171013,74.52 C32.1172061,75.735 35.8389424,76.5 39.7904155,76.5 C43.5580992,76.5 47.2798356,75.735 50.6799403,74.52 L39.7904155,90 Z" id="Path"></path>
                    <path d="M39.7904155,90 L28.7171013,74.52 C32.1172061,75.735 35.8389424,76.5 39.7904155,76.5 C43.5580992,76.5 47.2798356,75.735 50.6799403,74.52 L39.7904155,90 Z" id="Path"></path>
                </g>
                <g id="circle" transform="translate(16.000000, 22.000000)">
                    <path d="M23.7904155,0.5 C36.4784292,0.5 46.7640966,10.5735931 46.7640966,23 C46.7640966,35.4264069 36.4784292,45.5 23.7904155,45.5 C11.1024019,45.5 0.816734513,35.4264069 0.816734513,23 C0.816734513,10.5735931 11.1024019,0.5 23.7904155,0.5 L23.7904155,0.5 Z M23.7904155,9.5 C16.1776073,9.5 10.0062069,15.5441559 10.0062069,23 C10.0062069,30.4558441 16.1776073,36.5 23.7904155,36.5 C31.4032237,36.5 37.5746242,30.4558441 37.5746242,23 C37.5746242,15.5441559 31.4032237,9.5 23.7904155,9.5 Z" id="Combined-Shape"></path>
                </g>
            </g>
        </g>
    </g>
</svg>