<?xml version="1.0" encoding="UTF-8"?>
<svg width="80px" height="80px" viewBox="0 0 80 80" version="1.1" xmlns="http://www.w3.org/2000/svg" xmlns:xlink="http://www.w3.org/1999/xlink">
    <!-- Generator: Sketch 46.2 (44496) - http://www.bohemiancoding.com/sketch -->
    <title>Rainy</title>
    <desc>Created with Sketch.</desc>
    <defs></defs>
    <g id="Page-1" stroke="none" stroke-width="1" fill="none" fill-rule="evenodd">
        <g id="Rainy">
            <g id="weather-rainy" transform="translate(10.000000, 13.000000)">
                <path d="M13.6363636,32.6842105 C15.1425948,32.6842105 16.3636364,33.9036455 16.3636364,35.4078947 C16.3636364,36.912144 15.1425948,38.1315789 13.6363636,38.1315789 C10.0197751,38.1315789 6.55131269,36.6967851 3.99399844,34.1428358 C1.43668419,31.5888864 3.02788098e-16,28.1249877 0,24.5131579 C-6.05576195e-16,16.9919116 6.10520796,10.8947368 13.6363636,10.8947368 C16.3636364,4.49407895 22.6363636,0 30,0 C39.3545455,0 47.0181818,7.245 47.7272727,16.4238158 L49.0909091,16.3421053 C55.1158336,16.3421053 60,21.2198451 60,27.2368421 C60,33.2538391 55.1158336,38.1315789 49.0909091,38.1315789 L46.3636364,38.1315789 C44.8574052,38.1315789 43.6363636,36.912144 43.6363636,35.4078947 C43.6363636,33.9036455 44.8574052,32.6842105 46.3636364,32.6842105 L49.0909091,32.6842105 C52.1033714,32.6842105 54.5454545,30.2453406 54.5454545,27.2368421 C54.5454545,24.2283436 52.1033714,21.7894737 49.0909091,21.7894737 L43.6363636,21.7894737 L43.6363636,19.0657895 C43.6363636,11.5445432 37.5311557,5.44736842 30,5.44736842 C23.1818182,5.44736842 17.5909091,10.4044737 16.5272727,16.8596053 C15.6272727,16.5327632 14.6454545,16.3421053 13.6363636,16.3421053 C9.11767023,16.3421053 5.45454545,20.0004101 5.45454545,24.5131579 C5.45454545,29.0259057 9.11767023,32.6842105 13.6363636,32.6842105 L13.6363636,32.6842105 Z" id="Cloud" fill="#5B6C75" fill-rule="nonzero"></path>
                <path d="M37.7181818,37.2327632 C41.9727273,41.4817105 41.9727273,47.6644737 37.7181818,51.9678947 C35.5909091,54.0923684 32.7272727,54.4736842 30,54.4736842 C27.2727273,54.4736842 24.4090909,54.0923684 22.2818182,51.9678947 C18.0272727,47.6644737 18.0272727,41.4817105 22.2818182,37.2327632 L30,24.5131579 L37.7181818,37.2327632 Z M33.8454545,40.0109211 L30,33.3651316 L26.1545455,40.0109211 C24,42.2171053 24,45.4855263 26.1545455,47.6644737 C27.2727273,48.8356579 28.6363636,49.0263158 30,49.0263158 C31.3636364,49.0263158 32.7272727,48.8356579 33.8454545,47.6644737 C36,45.4855263 36,42.2171053 33.8454545,40.0109211 Z" id="Raindrop" fill="#0470A6"></path>
            </g>
        </g>
    </g>
</svg>